<svg id="Layer_1" data-name="Layer 1" xmlns="http://www.w3.org/2000/svg" viewBox="0 0 3217 3217"><title>icon</title><path d="M3912.3,2118.35q21.67,69.69,36.56,142.17a1480.14,1480.14,0,0,1,22.48,147.3,1505.58,1505.58,0,0,1,0,303.36,1480.14,1480.14,0,0,1-22.48,147.3q-14.82,72.42-36.56,142.17T3862.42,3137q-28.15,66.56-62.47,129.67t-74.31,122.32q-40,59.19-85.4,114.2t-95.75,105.35q-50.32,50.34-105.35,95.75t-114.2,85.4q-59.19,40-122.32,74.31T3073,3926.42q-66.57,28.15-136.3,49.88t-142.17,36.56a1480.14,1480.14,0,0,1-147.3,22.48,1505.58,1505.58,0,0,1-303.36,0,1480.14,1480.14,0,0,1-147.3-22.48q-72.42-14.82-142.17-36.56t-136.3-49.88q-66.55-28.15-129.67-62.47t-122.32-74.31q-59.19-40-114.2-85.4t-105.35-95.75q-50.34-50.32-95.75-105.35t-85.4-114.2q-40-59.19-74.31-122.32T1128.58,3137q-28.15-66.57-49.88-136.3t-36.56-142.17a1480.14,1480.14,0,0,1-22.48-147.3,1505.58,1505.58,0,0,1,0-303.36,1480.14,1480.14,0,0,1,22.48-147.3q14.82-72.42,36.56-142.17t49.88-136.3q28.15-66.55,62.47-129.67t74.31-122.32q40-59.19,85.4-114.2t95.75-105.35q50.33-50.34,105.35-95.75t114.2-85.4q59.19-40,122.32-74.31t129.67-62.47q66.57-28.15,136.3-49.88t142.17-36.56a1480.14,1480.14,0,0,1,147.3-22.48,1505.58,1505.58,0,0,1,303.36,0,1480.14,1480.14,0,0,1,147.3,22.48q72.42,14.82,142.17,36.56" transform="translate(-887 -951)" style="fill:none;stroke:#d42134;stroke-linecap:round;stroke-miterlimit:10;stroke-width:250px"/><rect x="2230.87" y="1856.81" width="120.42" height="887.07" rx="50" transform="translate(4641.47 1594.18) rotate(139.21)" style="fill:#d42134;stroke:#d42134;stroke-miterlimit:10;stroke-width:100px"/><rect x="2988.22" y="1259.72" width="120.42" height="1591.46" rx="50" transform="translate(2969.18 4691.28) rotate(-136.68)" style="fill:#d42134;stroke:#d42134;stroke-miterlimit:10;stroke-width:100px"/></svg>